<?xml version="1.0" standalone="no"?>
<!DOCTYPE svg PUBLIC "-//W3C//DTD SVG 20010904//EN"
 "http://www.w3.org/TR/2001/REC-SVG-20010904/DTD/svg10.dtd">
<svg version="1.0" xmlns="http://www.w3.org/2000/svg"
 width="300.000000pt" height="262.000000pt" viewBox="0 0 300.000000 262.000000"
 preserveAspectRatio="xMidYMid meet">
<metadata>
Created by potrace 1.10, written by Peter Selinger 2001-2011
</metadata>
<g transform="translate(0.000000,262.000000) scale(0.100000,-0.100000)"
fill="#000000" stroke="none">
<path d="M1362 2412 c-61 -22 -112 -67 -150 -132 -23 -38 -27 -56 -26 -120 0
-87 24 -143 82 -199 35 -32 35 -34 16 -47 -87 -63 -139 -149 -150 -246 -6 -55
-8 -58 -35 -58 -26 0 -32 8 -74 95 -30 62 -56 103 -79 121 l-34 28 44 39 c110
97 120 260 23 371 -75 85 -173 114 -280 83 -197 -58 -256 -322 -102 -458 34
-29 35 -32 17 -42 -10 -5 -38 -30 -61 -53 -74 -76 -133 -217 -133 -316 0 -52
4 -63 29 -89 21 -20 39 -29 63 -29 l34 0 -4 -101 c-3 -82 -1 -100 10 -97 9 3
14 31 16 100 l3 95 26 -5 c63 -12 133 68 133 152 0 28 -7 45 -29 67 -16 16
-36 29 -45 29 -10 0 -16 12 -18 35 -4 45 -22 50 -26 9 -2 -26 -7 -31 -22 -27
-10 3 -35 0 -54 -7 -44 -14 -57 -47 -27 -69 15 -12 18 -20 11 -31 -13 -20 -13
-86 0 -111 12 -22 12 -22 -28 -8 -55 19 -64 85 -27 197 37 107 95 192 161 233
31 19 39 20 85 9 48 -12 124 -9 160 5 25 9 81 -45 116 -112 42 -79 48 -103 29
-103 -9 0 -16 -7 -16 -16 0 -12 7 -15 25 -12 22 5 25 2 19 -15 -5 -17 -3 -19
12 -12 11 4 31 12 45 18 28 11 99 2 99 -13 0 -6 -3 -10 -7 -10 -5 0 -14 -4
-21 -9 -11 -6 -8 -16 12 -46 31 -45 33 -78 6 -105 -41 -41 -118 -15 -146 49
-20 45 -39 44 -30 -1 5 -26 3 -29 -17 -26 -20 3 -22 9 -24 73 -4 135 -14 216
-26 212 -7 -3 -11 -9 -10 -15 2 -6 5 -104 8 -219 3 -114 8 -231 10 -258 l5
-50 -40 3 c-35 4 -40 2 -40 -17 0 -17 -6 -21 -30 -21 -28 0 -30 -3 -30 -35 0
-28 -4 -35 -20 -35 -20 0 -20 -7 -20 -413 l0 -413 217 -13 c119 -6 281 -18
360 -26 124 -13 162 -13 286 0 79 8 241 20 360 26 l217 13 0 413 c0 406 0 413
-20 413 -16 0 -20 7 -20 35 0 32 -2 35 -30 35 -24 0 -30 4 -30 21 0 17 -5 20
-36 17 l-37 -3 -1 -374 -1 -374 -85 -17 c-105 -22 -208 -59 -322 -116 l-88
-44 0 80 0 80 48 0 47 -1 -34 -18 c-19 -10 -29 -21 -24 -24 6 -4 31 4 55 18
27 15 63 25 91 26 26 1 47 6 47 11 0 5 -4 6 -10 3 -5 -3 -10 -2 -10 4 0 12 93
47 182 69 37 9 68 19 68 24 0 15 -39 8 -132 -22 -51 -16 -94 -27 -96 -25 -2 2
8 11 22 20 15 10 25 25 24 33 -2 11 16 22 67 38 39 13 80 23 93 23 25 1 31 21
6 21 -9 0 -54 -10 -100 -22 -63 -16 -84 -26 -84 -39 0 -46 -108 -119 -176
-119 -38 0 -91 34 -120 78 -12 18 -37 67 -54 110 -18 42 -35 79 -39 82 -3 3
-7 12 -8 20 -4 36 -40 143 -45 134 -14 -22 -88 -266 -102 -333 -17 -84 -24
-94 -65 -93 -38 1 -77 21 -124 66 -22 21 -49 36 -63 36 -34 0 -30 -16 6 -24
17 -3 51 -26 77 -51 l48 -45 85 0 c72 0 92 -4 129 -25 45 -26 61 -30 61 -17 0
4 -25 20 -56 35 -48 24 -54 30 -48 50 9 31 8 31 52 8 23 -12 43 -17 46 -13 3
5 -15 18 -39 30 -36 17 -45 27 -45 47 0 29 10 31 50 10 19 -10 31 -11 35 -5 4
6 -11 18 -34 28 -26 11 -39 22 -36 30 3 8 5 20 5 28 0 12 4 12 29 -1 20 -10
32 -11 36 -4 4 5 -7 15 -24 22 -20 7 -29 17 -26 25 3 8 5 20 5 28 0 11 4 12
19 5 10 -6 21 -8 24 -5 2 3 12 -16 21 -42 12 -37 16 -88 16 -221 l0 -173 -91
46 c-106 53 -271 110 -346 120 l-53 7 0 366 c0 416 1 425 60 414 19 -3 75 -19
125 -34 85 -27 110 -29 89 -10 -9 9 -158 53 -222 66 l-32 7 0 88 0 88 31 4
c20 3 33 0 36 -8 7 -20 87 -47 115 -39 29 9 68 44 68 62 0 7 5 13 11 13 8 0
10 -39 7 -129 -2 -71 0 -127 4 -125 9 6 18 72 22 169 3 70 5 80 22 83 41 6
111 26 138 40 21 10 34 11 50 3 35 -17 99 -31 144 -31 39 0 42 -2 42 -26 0
-22 2 -25 15 -14 8 7 15 18 15 24 0 7 16 20 35 29 25 12 42 30 55 60 10 23 19
34 19 24 1 -28 39 -95 60 -107 11 -5 49 -10 84 -10 59 0 65 -2 71 -22 10 -38
6 -44 -10 -15 l-15 27 -113 0 -114 0 -94 -99 c-92 -95 -236 -278 -277 -351
l-20 -36 48 -144 c27 -80 56 -162 65 -184 40 -91 94 -146 144 -146 32 0 123
52 134 76 10 21 6 28 -34 63 -55 49 -132 159 -186 267 l-40 80 57 70 c61 74
156 161 233 212 50 34 192 105 228 115 19 5 21 10 15 34 -4 15 -7 33 -7 38 8
80 4 189 -6 193 -9 3 -12 -19 -12 -82 l0 -86 -58 0 c-48 0 -62 4 -79 23 -31
33 -50 77 -58 129 -6 38 -13 50 -43 69 -64 42 -69 116 -9 157 45 30 61 28 83
-13 18 -34 18 -34 -6 -60 -27 -28 -52 -32 -70 -10 -15 19 -30 19 -30 2 0 -21
34 -47 59 -47 12 0 36 14 53 30 23 24 29 37 25 58 -12 58 -12 65 1 69 8 3 12
-12 13 -54 3 -86 3 -85 27 -123 12 -19 27 -52 34 -72 6 -21 17 -38 25 -38 18
0 16 17 -6 66 -18 40 -18 43 -2 70 10 16 36 45 58 65 37 34 43 36 91 31 33 -3
69 1 102 12 48 16 51 16 91 -5 102 -52 226 -229 237 -338 4 -42 0 -57 -18 -84
-34 -48 -129 -117 -162 -117 -28 0 -67 30 -69 53 0 6 -2 20 -4 30 -4 22 30 46
56 40 14 -4 32 6 60 33 39 38 52 71 25 61 -9 -4 -25 8 -41 29 -42 55 -57 46
-49 -31 7 -64 7 -65 -18 -65 -82 0 -75 -142 8 -172 26 -9 37 -20 41 -40 8 -39
23 -35 23 5 0 25 6 37 23 45 40 19 129 105 143 139 19 44 18 73 -6 140 -40
113 -144 249 -222 289 -45 23 -44 21 -15 45 69 53 104 179 78 276 -16 57 -67
121 -126 158 -43 27 -57 30 -129 30 -65 0 -90 -5 -124 -23 -118 -63 -174 -191
-137 -318 13 -47 27 -69 71 -111 29 -29 60 -53 69 -53 22 0 19 -7 -21 -42 -19
-17 -42 -45 -51 -61 -14 -27 -16 -29 -25 -13 -6 10 -10 43 -9 73 0 31 -4 64
-10 74 -11 21 -39 25 -55 9 -12 -12 -44 17 -78 70 -23 38 -56 49 -74 27 -9
-11 -9 -24 3 -57 8 -23 15 -45 15 -48 0 -2 -19 13 -43 34 -24 22 -51 44 -61
49 -16 9 -14 14 22 52 46 49 72 117 71 187 -2 182 -185 309 -357 248z m195
-35 c152 -79 183 -286 59 -395 -49 -43 -98 -62 -159 -62 -141 0 -233 85 -245
226 -4 52 -1 69 21 113 50 98 125 144 227 138 36 -2 79 -11 97 -20z m-682 -66
c50 -23 97 -70 121 -119 25 -51 25 -155 0 -204 -89 -180 -346 -183 -438 -4
-30 58 -30 156 -1 212 26 49 95 111 138 123 53 16 137 12 180 -8z m1380 -40
c46 -21 101 -79 123 -130 18 -44 18 -138 -1 -182 -64 -153 -271 -198 -388 -86
-57 54 -74 96 -74 178 0 67 4 81 30 125 21 33 48 60 85 82 47 27 63 32 120 32
41 0 80 -7 105 -19z m-481 -378 c22 -34 23 -39 9 -50 -20 -16 -29 -10 -36 24
-3 16 -9 36 -12 46 -13 32 14 18 39 -20z m-143 -2 c24 -17 54 -43 66 -59 19
-26 20 -34 11 -60 -15 -38 12 -115 49 -139 22 -15 24 -21 19 -61 -11 -95 -54
-120 -176 -103 -121 16 -123 21 -43 69 81 49 114 62 154 62 40 0 33 21 -9 32
-31 8 -32 10 -32 63 0 42 -3 55 -15 55 -11 0 -15 -12 -15 -49 l0 -48 -61 -7
c-122 -12 -191 -8 -241 16 -28 14 -48 31 -50 42 -5 29 -28 32 -28 4 0 -15 -10
-29 -30 -40 -17 -9 -30 -23 -30 -31 0 -30 27 -39 97 -32 37 3 118 8 178 10 61
2 125 6 143 10 21 5 32 4 32 -4 0 -6 -5 -11 -12 -11 -6 0 -53 -25 -103 -56
-112 -67 -217 -106 -266 -98 -26 5 -38 14 -52 41 -16 31 -16 36 -2 50 14 13
14 18 2 37 -8 11 -23 23 -33 24 -32 6 -33 14 -18 86 15 72 39 112 103 173 43
40 67 48 105 34 38 -15 125 -13 161 4 42 19 46 18 96 -14z m-313 -241 c10 0
12 -3 7 -9 -14 -12 -94 -21 -100 -11 -6 10 45 30 63 24 8 -2 21 -4 30 -4z
m-675 -73 c44 -19 60 -42 59 -83 -2 -39 -33 -99 -58 -108 -29 -11 -67 -6 -86
11 -22 20 -24 91 -3 119 18 24 19 34 3 34 -7 0 -20 5 -28 10 -13 9 -13 11 0
20 21 14 75 12 113 -3z m1767 -143 c0 -23 -18 -24 -24 -1 -11 41 -7 54 9 33 8
-11 15 -25 15 -32z m-453 -58 c12 3 24 1 27 -5 4 -7 1 -8 -8 -5 -11 4 -16 0
-16 -12 0 -9 -3 -14 -6 -11 -4 4 -19 -2 -34 -13 -16 -11 -31 -20 -34 -20 -24
0 -248 -168 -300 -224 -10 -12 -22 -20 -27 -18 -5 1 -9 -7 -9 -18 0 -11 -9
-25 -20 -32 -11 -7 -20 -19 -20 -26 0 -7 -4 -10 -10 -7 -5 3 -10 -1 -10 -10 0
-9 -7 -27 -16 -40 -9 -14 -12 -25 -6 -25 5 0 13 -12 16 -27 9 -38 67 -153 89
-177 9 -11 17 -23 17 -28 0 -8 5 -14 80 -102 l42 -50 -21 -17 c-51 -41 -116 0
-154 99 -11 26 -24 58 -30 71 -7 13 -12 29 -12 35 -1 6 -6 22 -12 36 -7 14
-19 52 -29 85 -9 33 -20 65 -24 70 -15 22 -8 55 16 74 13 10 24 25 24 32 0 8
14 28 30 46 17 18 30 37 30 42 0 6 7 8 15 5 10 -4 13 -2 10 7 -3 8 11 31 30
52 19 21 35 41 35 45 0 15 149 153 171 158 13 3 41 7 61 8 21 1 40 5 44 9 4 3
14 2 24 -3 9 -5 26 -7 37 -4z m-1017 -601 l5 -380 50 -7 c66 -9 209 -51 265
-78 25 -11 36 -18 25 -15 -93 28 -222 57 -296 67 l-89 12 0 394 c0 369 1 393
18 390 16 -3 17 -32 22 -383z m1160 -8 l0 -393 -87 -12 c-75 -10 -229 -45
-298 -67 -15 -5 -17 -4 -5 3 8 6 56 23 105 40 78 26 123 37 233 58 l22 4 0
380 c0 331 2 380 15 380 13 0 15 -50 15 -393z m-1220 -35 l0 -378 98 -11 c108
-13 371 -77 387 -95 7 -8 5 -9 -6 -6 -72 26 -321 58 -444 58 l-75 0 0 405 c0
398 0 405 20 405 20 0 20 -7 20 -378z m1280 -27 l0 -405 -75 0 c-123 0 -372
-32 -444 -58 -11 -3 -13 -2 -6 6 16 18 279 82 388 95 l97 11 0 378 c0 371 0
378 20 378 20 0 20 -7 20 -405z m-650 213 c0 -18 76 -163 113 -218 17 -25 56
-72 86 -104 31 -32 46 -54 34 -48 -48 26 -148 164 -217 299 -39 79 -41 83 -26
83 6 0 10 -6 10 -12z m13 -514 c4 -4 7 -45 7 -91 l0 -83 -30 0 -30 0 0 143 1
142 22 -52 c13 -29 26 -55 30 -59z"/>
<path d="M1335 1881 c6 -11 57 -28 103 -35 35 -5 127 18 137 34 3 5 -13 3 -36
-5 -52 -19 -112 -18 -164 0 -48 17 -48 17 -40 6z"/>
<path d="M665 1810 c3 -6 27 -16 52 -23 50 -15 128 -7 148 14 7 8 3 9 -15 3
-34 -12 -118 -10 -158 3 -18 7 -30 8 -27 3z"/>
<path d="M2240 1773 c-23 -10 -55 -14 -93 -11 -38 3 -52 1 -42 -5 28 -15 108
-11 143 7 17 9 32 19 32 21 0 6 3 7 -40 -12z"/>
<path d="M1322 1313 c-13 -53 -78 -235 -144 -403 -66 -168 -122 -315 -125
-327 -7 -31 42 -88 101 -118 58 -29 71 -23 79 38 8 58 51 201 94 316 20 53 36
103 36 111 -1 8 13 43 30 77 166 324 179 354 163 378 -14 21 -23 23 -113 24
l-98 2 -23 -98z m164 46 c6 -5 14 -6 17 -2 4 3 7 -3 7 -15 0 -12 -4 -22 -10
-22 -5 0 -7 -6 -4 -13 2 -7 -5 -23 -16 -35 -11 -12 -20 -25 -19 -29 3 -19 -14
-52 -23 -47 -6 4 -8 -1 -4 -13 4 -12 -1 -27 -14 -41 -12 -12 -16 -22 -9 -22 8
0 7 -6 -3 -17 -8 -10 -15 -29 -16 -42 0 -13 -5 -27 -10 -30 -5 -3 -12 -18 -16
-33 -3 -16 -11 -28 -16 -28 -6 0 -10 -8 -10 -19 0 -10 -7 -24 -15 -31 -8 -7
-15 -17 -15 -22 0 -6 -6 -24 -14 -41 -19 -44 -82 -241 -96 -304 -14 -60 -25
-64 -68 -28 -22 18 -29 31 -25 48 5 22 82 224 108 282 25 56 74 190 81 218 3
15 10 27 15 27 5 0 9 11 9 25 0 13 8 29 18 34 14 9 14 12 3 20 -9 6 -10 11 -2
15 6 4 11 18 11 31 0 13 7 30 15 38 11 12 12 16 2 20 -9 3 -9 8 2 21 8 9 11
19 8 23 -11 11 13 42 35 45 27 4 59 -2 74 -13z m-161 -127 c-34 -109 -242
-644 -256 -657 -6 -5 -3 8 6 30 69 164 229 589 248 654 12 44 24 76 26 70 1
-6 -9 -49 -24 -97z"/>
<path d="M1580 1405 c0 -3 6 -14 13 -25 10 -17 8 -27 -11 -61 -31 -54 -23 -58
16 -7 31 40 31 41 15 69 -15 26 -33 38 -33 24z"/>
<path d="M1653 1328 c-74 -77 -190 -223 -215 -272 -9 -18 -9 -19 4 -6 8 8 45
54 81 102 37 48 104 125 148 172 45 48 77 86 72 86 -5 0 -46 -37 -90 -82z"/>
<path d="M2071 1384 c17 -47 3 -62 -107 -114 -157 -74 -274 -165 -378 -292
l-38 -47 23 -48 c35 -72 81 -145 87 -139 2 3 0 12 -7 19 -9 12 0 19 46 40 96
42 158 65 225 82 85 21 90 23 83 34 -8 13 -127 -21 -264 -75 -90 -37 -115 -43
-122 -32 -14 22 -5 32 62 65 73 36 267 103 297 103 19 0 39 16 30 25 -13 14
-252 -66 -358 -120 -27 -14 -52 -25 -55 -25 -4 0 -5 12 -3 28 3 23 15 33 78
64 83 40 276 108 308 108 20 0 39 17 30 25 -9 9 -188 -45 -277 -84 -52 -23
-97 -41 -100 -41 -12 0 108 115 162 156 52 39 106 61 195 79 28 6 32 4 32 -14
0 -46 18 -17 24 39 5 40 11 60 20 60 21 0 39 28 38 60 -1 44 -11 70 -27 70
-11 0 -12 -6 -4 -26z m-53 -159 c-2 -2 -17 -7 -33 -11 l-30 -7 30 32 c28 31
30 31 33 11 2 -12 2 -23 0 -25z"/>
<path d="M638 1162 c-32 -2 -58 -7 -58 -12 0 -12 207 -12 235 0 11 5 16 9 10
10 -29 3 -137 5 -187 2z"/>
<path d="M992 1080 c2 -7 35 -21 73 -30 39 -10 82 -23 98 -29 21 -8 27 -8 27
3 0 12 -39 25 -184 63 -12 3 -17 1 -14 -7z"/>
<path d="M992 999 c2 -6 35 -19 73 -29 39 -10 75 -20 80 -22 6 -1 11 2 13 7 3
10 -67 34 -136 48 -23 5 -32 3 -30 -4z"/>
<path d="M994 919 c-6 -10 -5 -10 66 -28 25 -7 53 -15 64 -18 12 -3 17 -1 14
8 -5 16 -136 50 -144 38z"/>
<path d="M994 839 c-6 -10 0 -13 65 -29 40 -10 62 -8 49 6 -13 12 -108 32
-114 23z"/>
<path d="M1915 825 c-76 -22 -128 -41 -218 -79 -37 -16 -37 -17 -21 -41 9 -14
19 -23 22 -21 3 3 0 12 -7 20 -10 12 5 21 91 54 57 22 129 46 161 53 56 12 76
23 60 32 -5 3 -44 -6 -88 -18z"/>
<path d="M996 751 c14 -14 84 -25 84 -13 0 11 -33 22 -69 22 -16 0 -21 -4 -15
-9z"/>
<path d="M1855 726 c-148 -50 -159 -56 -149 -66 6 -6 36 1 79 19 39 15 102 36
140 46 39 10 74 22 80 27 21 19 -57 5 -150 -26z"/>
<path d="M990 670 c0 -5 6 -10 14 -10 8 0 21 -3 30 -6 11 -4 16 -1 16 10 0 11
-9 16 -30 16 -16 0 -30 -4 -30 -10z"/>
<path d="M1955 675 c-5 -2 -52 -16 -102 -31 -51 -15 -93 -31 -93 -36 0 -13 20
-10 99 17 40 14 91 28 112 31 42 7 54 25 17 23 -13 0 -27 -2 -33 -4z"/>
</g>
</svg>
